<?xml version="1.0" encoding="UTF-8" standalone="no"?>
<svg width="234px" height="113px" viewBox="0 0 234 113" version="1.1" xmlns="http://www.w3.org/2000/svg" xmlns:xlink="http://www.w3.org/1999/xlink" xmlns:sketch="http://www.bohemiancoding.com/sketch/ns">
    <!-- Generator: Sketch 3.0.4 (8054) - http://www.bohemiancoding.com/sketch -->
    <title>team</title>
    <desc>Created with Sketch.</desc>
    <defs></defs>
    <g id="Page-1" stroke="none" stroke-width="1" fill="none" fill-rule="evenodd" sketch:type="MSPage">
        <g id="team" sketch:type="MSLayerGroup" transform="translate(0.000000, 1.000000)">
            <g id="Imported-Layers" transform="translate(0.000000, 28.059474)" sketch:type="MSShapeGroup">
                <path d="M30.0997581,42.5507676 L30.0997581,50.8553174 L39.2558491,56.8176231 L48.8382164,50.8553174 L48.8382164,42.5507676 L30.0997581,42.5507676" id="Fill-1" fill="#F2D7A6"></path>
                <path d="M48.8382164,42.5507676 L30.0997581,42.5507676 L30.0997581,45.2732724 L36.8827594,49.8849447 C37.5977709,50.3708895 38.4270628,50.6161375 39.2578718,50.6161375 C39.9991779,50.6161375 40.742001,50.4214561 41.4064458,50.0290594 L48.8382164,45.6388688 L48.8382164,42.5507676" id="Fill-2" fill="#ECC791"></path>
                <path d="M56.077834,24.13189 C56.077834,24.13189 54.8005221,22.6411872 54.1613605,24.345281 C54.1613605,24.345281 58.2071928,5.18054635 39.4687344,5.18054635 C20.730276,5.18054635 24.7761083,24.345281 24.7761083,24.345281 C24.1374524,22.6411872 22.8601405,24.13189 22.8601405,24.13189 C21.7952083,33.7142574 26.0539258,34.5657986 26.0539258,34.5657986 C26.0539258,34.5657986 26.0539258,39.8894484 30.9512993,44.7868219 C35.8491785,49.6841953 39.4687344,49.6841953 39.4687344,49.6841953 C39.4687344,49.6841953 43.3016813,49.0455394 48.1990548,44.1481659 C53.096934,39.2502868 52.8840487,34.5657986 52.8840487,34.5657986 C52.8840487,34.5657986 57.1427662,33.7142574 56.077834,24.13189" id="Fill-3" fill="#F2D7A6"></path>
                <path d="M25.0719228,27.5072094 L26.3497403,21.7582947 C26.3497403,21.7582947 27.6270522,17.0738065 28.2657081,16.0088743 C28.9048697,14.9444477 30.0997581,13.6666302 30.0997581,13.6666302 C30.0997581,13.6666302 33.5807616,15.157333 40.6120448,16.6480359 C47.6433281,18.138233 49.3469162,17.9253477 49.3469162,17.9253477 L47.4304428,15.582598 L51.2633897,15.582598 C51.2633897,15.582598 51.476275,18.9902799 52.5407016,20.0547065 C53.6056338,21.1196387 54.0314044,27.5072094 54.0314044,27.5072094 L55.7349926,25.8041269 L56.7994191,22.1840653 L56.7994191,10.4728448 C56.7994191,10.4728448 52.3278163,-0.174454709 39.5516636,-0.174454709 C26.7755109,-0.174454709 22.5167934,11.5372714 22.5167934,11.5372714 C22.5167934,11.5372714 21.6652521,21.5449037 22.5167934,22.6098359 C23.3683346,23.6742625 25.0719228,27.5072094 25.0719228,27.5072094" id="Fill-4" fill="#A84F41"></path>
                <path d="M30.0997581,50.7486219 L39.4687344,80.9849097 L39.2558491,56.8176231 L30.0997581,50.7486219" id="Fill-5" fill="#F7F7F6"></path>
                <path d="M40.3637629,83.3524371 L30.0997581,50.7491276 L7.10258214,61.6088068 L7.10258214,65.2288684 C7.10258214,65.2288684 2.00850465,79.0618626 0.0470269215,83.3524371 L40.3637629,83.3524371" id="Fill-6" fill="#6C7074"></path>
                <path d="M22.9900966,66.9319509 L36.4483925,83.3524371 L40.1837459,83.3524371 L30.0168289,49.684701 C30.0168289,49.684701 21.7866119,52.4289494 21.2738668,54.8258054 L28.3132407,62.8866243 L22.9900966,66.9319509" id="Fill-7" fill="#5A5D60"></path>
                <path d="M30.0168289,49.6841953 L39.2558491,56.8176231 L34.6365918,64.5897068 L30.0168289,49.6841953" id="Fill-8" fill="#D1D8D0"></path>
                <path d="M78.2522916,83.3524371 L71.4096217,65.2288684 L71.4096217,61.6088068 L48.4124458,50.7491276 L38.1479353,83.3524371 L78.2522916,83.3524371" id="Fill-9" fill="#6C7074"></path>
                <path d="M42.0638114,83.3524371 L55.5221073,66.9319509 L50.1984575,62.8866243 L57.1422606,54.7322572 C56.6300211,52.3354013 48.8619827,49.7408299 48.8619827,49.7408299 C45.8937243,57.483585 39.8019682,77.7683694 38.137822,83.3524371 L42.0638114,83.3524371" id="Fill-10" fill="#5A5D60"></path>
                <path d="M48.8619827,49.7408299 L39.2558491,56.8176231 L43.875612,64.5897068 L48.8619827,49.7408299" id="Fill-11" fill="#ECECED"></path>
                <path d="M42.5598696,62.3764075 L39.2558491,56.8176231 L35.9523343,62.3764075 L37.6038389,64.5897068 L37.6630018,66.6260231 L35.9523343,69.3389202 L39.2558491,79.8340143 L42.5598696,69.3389202 L40.8471794,66.6260231 L40.9078593,64.5897068 L42.5598696,62.3764075" id="Fill-12" fill="#EDC05B"></path>
                <path d="M17.8090446,81.797009 L17.2189326,83.3524371 L17.9127061,83.3524371 L17.8090446,81.797009" id="Fill-13" fill="#5C6064"></path>
                <path d="M62.9483155,81.797009 L62.844654,83.3524371 L63.5384275,83.3524371 L62.9483155,81.797009" id="Fill-14" fill="#5C6064"></path>
                <path d="M39.8090475,67.3749141 L38.7011337,67.3749141 C37.9239253,67.3749141 37.2883034,66.7387865 37.2883034,65.9620838 L37.2883034,64.7606218 C37.2883034,63.9839191 37.9239253,63.3477915 38.7011337,63.3477915 L39.8090475,63.3477915 C40.5857502,63.3477915 41.2218778,63.9839191 41.2218778,64.7606218 L41.2218778,65.9620838 C41.2218778,66.7387865 40.5857502,67.3749141 39.8090475,67.3749141" id="Fill-15" fill="#D6AF54"></path>
                <path d="M7.10258214,61.6088068 C7.10258214,61.6088068 13.5012774,62.2550477 16.2480542,73.2436717 C16.2480542,73.2436717 14.4392875,65.9570272 7.10258214,61.6088068" id="Fill-16" fill="#5A5D60"></path>
                <path d="M71.439456,61.6088068 C71.439456,61.6088068 65.0407607,62.2550477 62.2934783,73.2436717 C62.2934783,73.2436717 64.1027506,65.9570272 71.439456,61.6088068" id="Fill-17" fill="#5A5D60"></path>
            </g>
            <g id="Imported-Layers" transform="translate(146.137423, 17.946157)" sketch:type="MSShapeGroup">
                <path d="M34.124858,48.4574501 L34.124858,57.7561389 L43.9378089,64.431939 L54.2068705,57.7561389 L54.2068705,48.4574501 L34.124858,48.4574501" id="Fill-2" fill="#F2D7A6"></path>
                <path d="M54.2068705,48.4574501 L34.124858,48.4574501 L34.124858,51.5056036 L41.3943099,56.669463 C42.1603936,57.2135594 43.0493541,57.4886416 43.9398316,57.4886416 C44.7347383,57.4886416 45.5301506,57.270194 46.2421281,56.8307704 L54.2068705,51.9146873 L54.2068705,48.4574501" id="Fill-3" fill="#ECC791"></path>
                <path d="M33.710212,56.4449474 L44.0556291,64.431939 L38.8831734,73.1344478 L33.704144,59.4172511 L33.710212,56.4449474" id="Fill-4" fill="#D1D8D0"></path>
                <path d="M54.8111411,56.5081556 L44.0556291,64.431939 L49.2280848,73.1344478 L54.9137913,58.5753175 L54.8111411,56.5081556" id="Fill-5" fill="#ECECED"></path>
                <path d="M87.6541363,93.9714194 L80.0575186,73.849965 L78.4808526,69.0264187 L54.307498,57.6368017 L44.1249053,75.5454625 L33.8032545,57.6368017 L9.73558407,69.1892431 L8.05323388,73.849965 C8.05323388,73.849965 2.48383052,88.9759467 0.231594947,93.9714194 L87.6541363,93.9714194" id="Fill-6" fill="#7489D3"></path>
                <path d="M20.0415592,92.4008213 L19.4458849,93.9714194 L20.146232,93.9714194 L20.0415592,92.4008213" id="Fill-7" fill="#6275B6"></path>
                <path d="M70.5838694,92.4008213 L70.4791966,93.9714194 L71.1790381,93.9714194 L70.5838694,92.4008213" id="Fill-8" fill="#6275B6"></path>
                <path d="M13.763718,72.4588783 C15.3110554,74.4724396 17.0116096,77.6950479 18.2939781,82.8240163 C18.2939781,82.8240163 18.0735078,77.1994954 13.763718,72.4588783 M9.73558407,69.1892431 C11.369896,70.1580988 12.6932235,71.2811826 13.763718,72.4588783 C11.5994683,69.641814 9.73558407,69.1892431 9.73558407,69.1892431" id="Fill-9" fill="#6275B6"></path>
                <path d="M74.5482895,72.2328457 C70.1419175,77.030603 69.850654,82.8240163 69.850654,82.8240163 C71.1679135,77.5544728 72.9458345,74.2681506 74.5482895,72.2328457 M78.4838866,69.035015 C78.2371217,69.1128876 76.5259485,69.7201922 74.5482895,72.2328457 C75.6061424,71.0809389 76.9016582,69.9861724 78.4864149,69.0431057 L78.4838866,69.035015" id="Fill-11" fill="#6275B6"></path>
                <path d="M62.8906696,27.312528 C62.8906696,27.312528 61.460141,25.6438308 60.7451295,27.5506966 C60.7451295,27.5506966 65.274884,6.09276749 44.2937977,6.09276749 C23.3122057,6.09276749 27.8424658,27.5506966 27.8424658,27.5506966 C27.1274544,25.6438308 25.6964201,27.312528 25.6964201,27.312528 C24.5045657,38.0412398 29.2729944,38.9954312 29.2729944,38.9954312 C29.2729944,38.9954312 29.2729944,44.9557142 34.7569403,50.4396601 C40.2403805,55.9236059 44.2937977,55.9236059 44.2937977,55.9236059 C44.2937977,55.9236059 48.5853835,55.2080888 54.0688237,49.7241429 C59.5527695,44.2407028 59.3146009,38.9954312 59.3146009,38.9954312 C59.3146009,38.9954312 64.082524,38.0412398 62.8906696,27.312528" id="Fill-12" fill="#F2D7A6"></path>
                <path d="M28.1736769,31.0918744 L29.6042056,24.6547485 C29.6042056,24.6547485 31.0347342,19.4094769 31.7502513,18.2171169 C32.4652628,17.0252626 33.8032545,15.594734 33.8032545,15.594734 C33.8032545,15.594734 39.9647926,25.7859229 58.9302949,22.747377 C60.5949468,22.4803855 60.5989921,31.0918744 60.5989921,31.0918744 L62.5068693,29.1850086 L63.6987236,25.1315914 L63.6987236,12.0186653 C63.6987236,12.0186653 58.6916206,0.0970878378 44.3863345,0.0970878378 C30.0810484,0.0970878378 25.3126197,13.2105196 25.3126197,13.2105196 C25.3126197,13.2105196 24.358934,24.4160742 25.3126197,25.6084342 C26.2663055,26.8007942 28.1736769,31.0918744 28.1736769,31.0918744" id="Fill-13" fill="#464645"></path>
                <path d="M54.307498,57.6368017 C54.307498,57.6368017 55.7562305,57.4264447 56.2922363,58.5753175 L44.883404,78.7129532 C44.883404,78.7129532 44.2705371,79.5548868 43.7345313,78.8661699 C43.1985255,78.1769474 32.0961267,58.3452395 32.0961267,58.3452395 C32.0961267,58.3452395 32.6002755,57.1584419 33.8032545,57.6368017 C35.0057279,58.1156673 44.1249053,75.5454625 44.1249053,75.5454625 L54.307498,57.6368017" id="Fill-14" fill="#7489D3"></path>
                <path d="M44.4556107,75.7482345 L44.3691419,75.7709894 L44.3918969,75.857964 L44.4106065,75.8700999 C44.503649,75.9388705 44.9102043,76.2741269 44.9112157,77.1580308 C44.9112157,77.452834 44.8657057,77.8088227 44.7458629,78.236616 L44.7898559,78.3139829 L44.8677284,78.2699899 C44.9900995,77.8336003 45.0376321,77.4654756 45.0376321,77.1580308 C45.0391491,76.1001779 44.4682524,75.7537968 44.4556107,75.7482345" id="Fill-15" fill="#CCD4EF"></path>
                <path d="M44.7853049,75.1672245 L44.6993417,75.1920021 L44.7241193,75.2779653 L44.7433346,75.2906069 C44.8378941,75.3568491 45.2525401,75.6835093 45.2535514,76.5699414 C45.2535514,76.85362 45.2105698,77.1954501 45.0988177,77.6045337 L45.1428106,77.6819006 L45.2206831,77.6379077 C45.3349636,77.219722 45.3799679,76.8667673 45.3799679,76.5699414 C45.3814849,75.5080432 44.7984522,75.1722811 44.7853049,75.1672245" id="Fill-16" fill="#CCD4EF"></path>
                <path d="M45.114999,74.5862144 L45.0295415,74.6135204 L45.0563417,74.6989779 L45.0760627,74.7101025 C45.1726449,74.7753334 45.5948758,75.0928916 45.5963928,75.9818521 C45.5963928,76.2549116 45.5559396,76.5820774 45.4522781,76.9724514 L45.4967767,77.0498183 L45.5741435,77.004814 C45.6803334,76.605338 45.7228093,76.2670476 45.7228093,75.9818521 C45.7243263,74.9159085 45.1281463,74.5907654 45.114999,74.5862144" id="Fill-17" fill="#CCD4EF"></path>
                <path d="M45.4446931,74.0052044 L45.3602469,74.0340273 L45.3890699,74.1184735 L45.4087908,74.1301038 C45.5073957,74.1933121 45.9377173,74.5012626 45.9392343,75.3927514 C45.9392343,75.6546863 45.9013093,75.9681991 45.8052328,76.3408748 L45.8502371,76.417736 L45.927604,76.3722261 C46.0262088,75.9909541 46.0656507,75.6673279 46.0656507,75.3927514 C46.0676734,74.3227625 45.4578404,74.0087441 45.4446931,74.0052044" id="Fill-18" fill="#CCD4EF"></path>
                <path d="M45.7738815,73.4241944 L45.689941,73.4555456 L45.7212923,73.5389805 L45.7415189,73.5501052 C45.8421464,73.6107851 46.2810644,73.9101392 46.2825814,74.8041564 C46.2825814,75.0554723 46.2471848,75.3548265 46.1581876,75.7087925 L46.2042032,75.7851481 L46.2805587,75.7391325 C46.3720842,75.3770758 46.4089978,75.0671026 46.4089978,74.8041564 C46.4110205,73.7301222 45.7875345,73.4272284 45.7738815,73.4241944" id="Fill-19" fill="#CCD4EF"></path>
                <path d="M46.1035757,72.8426787 L46.0206465,72.8755469 L46.0540204,72.9589818 L46.074247,72.9696008 C46.1774029,73.0287637 46.6244115,73.3174989 46.6259285,74.21455 C46.6259285,74.455247 46.5935658,74.7409482 46.5111423,75.0772159 L46.5576636,75.1530658 L46.6340191,75.1065446 C46.7184653,74.7621861 46.7523449,74.4668773 46.7523449,74.21455 C46.7543676,73.1364705 46.1172286,72.8457127 46.1035757,72.8426787" id="Fill-20" fill="#CCD4EF"></path>
                <path d="M46.4332698,72.2616686 L46.3508462,72.2970652 L46.3862429,72.3794888 L46.4069752,72.3890964 C46.5121536,72.4467423 46.9682642,72.7248585 46.9702869,73.6249437 C46.9702869,73.8550216 46.9394413,74.1265642 46.8646027,74.4451337 L46.9116296,74.5209835 L46.9874795,74.4734509 C47.0648464,74.1472965 47.0967033,73.8661463 47.0967033,73.6249437 C47.098726,72.5418075 46.4469228,72.2636913 46.4332698,72.2616686" id="Fill-21" fill="#CCD4EF"></path>
                <path d="M46.7629639,71.6806586 L46.6815517,71.7180779 L46.718971,71.7989844 L46.7402089,71.8090977 C46.8479158,71.8637096 47.312117,72.1317125 47.3141396,73.0348317 C47.3141396,73.2542906 47.286328,73.5121802 47.2170518,73.8130514 L47.2650901,73.8889013 L47.3409399,73.8413687 C47.4112275,73.5324068 47.4405561,73.2654153 47.4405561,73.0348317 C47.4430844,71.9466388 46.7761112,71.6821756 46.7629639,71.6806586" id="Fill-22" fill="#CCD4EF"></path>
                <path d="M47.0916467,71.0996486 L47.0117515,71.1395962 L47.0511934,71.2194914 L47.0734427,71.2285934 C47.1831722,71.2816883 47.6564754,71.5380608 47.6590037,72.4447197 C47.6590037,72.6540653 47.6332148,72.8977962 47.5705122,73.1814748 L47.6185505,73.256819 L47.6938947,73.2082751 C47.7581142,72.9170115 47.7854202,72.6641786 47.7854202,72.4447197 C47.7874428,71.3504588 47.1052997,71.1001542 47.0916467,71.0996486" id="Fill-23" fill="#CCD4EF"></path>
                <path d="M47.4213408,70.5191442 L47.3424569,70.5606088 L47.3839215,70.6394927 L47.4066765,70.6485947 C47.5184286,70.6991612 48.0008338,70.9439035 48.0033622,71.854102 C48.0038678,72.052323 47.9801015,72.2824009 47.923467,72.5493925 L47.9725165,72.624231 L48.0473551,72.5756871 C48.1055067,72.3011106 48.1302843,72.0624363 48.1302843,71.854102 C48.1323069,70.7547845 47.4349938,70.5191442 47.4213408,70.5191442" id="Fill-24" fill="#CCD4EF"></path>
                <path d="M47.7505292,69.9381342 L47.6726567,69.9816214 L47.7166496,70.059494 L47.7394046,70.0675846 C47.8541907,70.1161286 48.3456979,70.3487348 48.3487319,71.2634843 C48.3487319,71.4510863 48.3274939,71.668017 48.2769274,71.9183215 L48.3259769,71.9926544 L48.4008155,71.9425935 C48.4528991,71.6862209 48.4751484,71.460694 48.4751484,71.2634843 C48.475654,70.7128142 48.2996823,70.3780635 48.1191596,70.1848991 C47.9386369,69.9917348 47.7576086,69.9401568 47.7505292,69.9381342" id="Fill-25" fill="#CCD4EF"></path>
                <path d="M48.0797177,69.3571242 L48.0033622,69.4031397 L48.0493777,69.4794953 L48.0726384,69.4875859 C48.1899528,69.5336015 48.6915733,69.7530605 48.6941017,70.6718553 C48.6941017,70.8488383 48.6748864,71.0526217 48.6298821,71.2862393 L48.679943,71.3600665 L48.7537702,71.3094999 C48.8002915,71.0698143 48.8205181,70.8579403 48.8205181,70.6718553 C48.8210238,70.1186569 48.6410068,69.7859288 48.4564387,69.5963041 C48.271365,69.4061737 48.0873027,69.3591468 48.0797177,69.3571242" id="Fill-26" fill="#CCD4EF"></path>
                <path d="M48.4089061,68.7761141 L48.3340676,68.8236467 L48.3821059,68.8994966 L48.4063778,68.9065759 C48.5262206,68.9505688 49.0369431,69.1573862 49.0399771,70.0807319 C49.0399771,70.247096 49.0227845,70.437732 48.9828369,70.6546627 L49.0339091,70.7279842 L49.1072306,70.676912 C49.1486952,70.4539133 49.1663935,70.256198 49.1663935,70.0807319 C49.1668992,69.5239939 48.9833425,69.1932884 48.7937178,69.0066977 C48.6051045,68.8206127 48.4164911,68.7776311 48.4089061,68.7761141" id="Fill-27" fill="#CCD4EF"></path>
                <path d="M48.7386003,68.1951041 L48.6647731,68.2456707 L48.714834,68.3194979 L48.7396116,68.3260715 C48.8624884,68.3675361 49.3828185,68.5607005 49.3863582,69.4880916 C49.3863582,69.6438367 49.3711882,69.8213254 49.3357916,70.0225804 L49.3873695,70.0953963 L49.4606911,70.044324 C49.4965933,69.837001 49.5127746,69.652433 49.5127746,69.4880916 C49.513786,68.9288252 49.3251726,68.6001424 49.1315026,68.4175971 C48.9383383,68.234546 48.7456796,68.1966211 48.7386003,68.1951041" id="Fill-28" fill="#CCD4EF"></path>
                <path d="M49.0677887,67.6145997 L48.9949728,67.6661776 L49.0475621,67.7389935 L49.0728454,67.7450615 C49.1987562,67.7839978 49.7291996,67.9630035 49.7332449,68.8964626 C49.7332449,69.0420943 49.719592,69.2059301 49.689252,69.3910038 L49.7413356,69.463314 L49.8141515,69.4117361 C49.8455027,69.2205944 49.8596614,69.0496793 49.8596614,68.8964626 C49.8601671,68.3331509 49.6675084,68.0064907 49.4692874,67.827485 C49.271572,67.6484793 49.074868,67.6156111 49.0677887,67.6145997" id="Fill-29" fill="#CCD4EF"></path>
                <path d="M49.3969772,67.0335897 L49.3256783,67.0882016 L49.3802902,67.1595005 L49.4065848,67.1645572 C49.5355296,67.2009651 50.0760864,67.3653065 50.0801317,68.3038222 C50.0801317,68.438835 50.0685014,68.5900291 50.0422067,68.7589215 L50.0953017,68.830726 L50.1671062,68.7786425 C50.1944122,68.6036821 50.2065481,68.4459143 50.2065481,68.3038222 C50.2075595,67.7369709 50.0103498,67.4128391 49.8070721,67.2378787 C49.6048058,67.0624127 49.4040565,67.034601 49.3969772,67.0335897" id="Fill-30" fill="#CCD4EF"></path>
                <path d="M49.7261656,66.4530853 L49.6563837,66.5092142 L49.7125126,66.5784905 L49.7398186,66.5835471 C49.8055551,66.5972001 49.9774815,66.647261 50.1317096,66.8065457 C50.285432,66.9663361 50.4270184,67.2363617 50.4275241,67.7111819 C50.4275241,67.8355757 50.4174108,67.9741281 50.3956672,68.1278505 L50.4487621,68.1991494 L50.5205666,68.1455488 C50.5433216,67.9862641 50.5539406,67.8421494 50.5539406,67.7111819 C50.5549519,67.1402852 50.3531912,66.8181761 50.1453626,66.647261 C49.9380396,66.476346 49.7332449,66.4540967 49.7261656,66.4530853" id="Fill-31" fill="#CCD4EF"></path>
                <path d="M50.0553541,65.872581 L49.9870892,65.9307325 L50.0452407,65.9989974 L50.0730524,66.0025371 C50.1408116,66.0146731 50.3162776,66.060183 50.4735397,66.2159281 C50.6302961,66.3721788 50.7749165,66.639676 50.7754222,67.1180359 C50.7754222,67.2318107 50.7673315,67.3572158 50.7486219,67.4957683 L50.8027281,67.5665615 L50.874027,67.5124552 C50.8932423,67.3693518 50.9018386,67.2378787 50.9018386,67.1180359 C50.90285,66.5430939 50.6960327,66.2230074 50.483653,66.0566433 C50.271779,65.8897736 50.0619277,65.8735923 50.0553541,65.872581" id="Fill-32" fill="#CCD4EF"></path>
                <path d="M50.3845425,65.2920766 L50.3183003,65.3522508 L50.3784745,65.4184931 L50.4067918,65.4215271 C50.476068,65.432146 50.6555794,65.473105 50.8158755,65.6253104 C50.9756659,65.7780215 51.1228146,66.0429904 51.1238259,66.5253956 C51.1238259,66.6280457 51.1167466,66.7403035 51.1015766,66.8646973 L51.1566942,66.9344792 L51.2269818,66.8798673 C51.2426574,66.7514282 51.2502424,66.633608 51.2502424,66.5253956 C51.2512537,65.9453969 51.0398854,65.6278387 50.8219434,65.46552 C50.6050128,65.3037069 50.3916218,65.2925823 50.3845425,65.2920766" id="Fill-33" fill="#CCD4EF"></path>
                <path d="M50.7132253,64.7115722 L50.6490057,64.7732635 L50.7112026,64.8379887 L50.7400256,64.8400114 C50.8113245,64.8486077 50.9948812,64.8850156 51.1582112,65.034187 C51.3210356,65.1833585 51.471724,65.4452934 51.4722297,65.9312382 C51.4722297,66.0232694 51.4666674,66.1238969 51.4550371,66.232615 L51.5106603,66.3018913 L51.5804422,66.246268 C51.5930838,66.1329989 51.5991518,66.028326 51.5991518,65.9312382 C51.6001631,65.3466885 51.3837382,65.031153 51.1607395,64.873891 C50.9382466,64.7161232 50.7203046,64.7120779 50.7132253,64.7115722" id="Fill-34" fill="#CCD4EF"></path>
                <path d="M51.0434251,64.1310679 L50.9802168,64.1942761 L51.0434251,64.2574843 L51.0444364,64.2574843 C51.0591007,64.2574843 51.2502424,64.2635523 51.4348104,64.3914858 C51.6254464,64.5249816 51.8201278,64.7838825 51.8211391,65.3375865 C51.8211391,65.4189987 51.8170938,65.5064789 51.8079918,65.6005328 L51.8646264,65.669809 L51.9339026,65.6136801 C51.9435102,65.5155809 51.9475556,65.4235497 51.9475556,65.3375865 C51.9490726,64.7545538 51.7326476,64.4420524 51.506615,64.2878243 C51.2820993,64.1330905 51.0596064,64.1315736 51.0434251,64.1310679" id="Fill-35" fill="#CCD4EF"></path>
                <path d="M51.3801985,63.5505635 L51.3716022,63.5505635 L51.3109223,63.6163001 L51.3766589,63.67698 L51.3801985,63.67698 L51.3822212,63.67698 C51.4191348,63.67698 51.6163445,63.6855763 51.8004068,63.8165437 C51.9859862,63.9505452 52.1700485,64.2069178 52.1710599,64.7434292 C52.1710599,64.8137167 52.1680259,64.889061 52.1609465,64.9689562 L52.2185924,65.0377267 L52.2868573,64.9800808 C52.2944423,64.8966459 52.2974763,64.8177621 52.2974763,64.7434292 C52.2989933,64.1780948 52.0947043,63.8696387 51.8732227,63.7133879 C51.6522467,63.5571372 51.4267198,63.5505635 51.3801985,63.5505635" id="Fill-36" fill="#CCD4EF"></path>
                <path d="M51.7240513,62.9695535 L51.7012963,62.9700592 L51.6421334,63.0373127 L51.709387,63.0964756 L51.7240513,63.0959699 L51.7260739,63.0959699 C51.7852368,63.0959699 51.9844692,63.1091173 52.1649919,63.2405904 C52.3465259,63.3745918 52.5199693,63.6279304 52.5214863,64.1492719 C52.5214863,64.2089404 52.5189579,64.2711373 52.514407,64.3378852 L52.5725585,64.4056444 L52.6403177,64.3469872 C52.6453744,64.277711 52.6479027,64.2119744 52.6479027,64.1492719 C52.6489141,63.6006244 52.4562554,63.2962136 52.2393247,63.1389515 C52.0234054,62.9816895 51.7948445,62.9700592 51.7240513,62.9695535" id="Fill-37" fill="#CCD4EF"></path>
                <path d="M52.0729607,62.3885435 L52.0299791,62.3905661 L51.9733445,62.4593367 L52.0421151,62.5159712 L52.0729607,62.5149599 L52.0744777,62.5149599 C52.1533616,62.5149599 52.3536052,62.5311412 52.5295769,62.6641313 C52.70656,62.7981328 52.8709014,63.0484374 52.8724184,63.5551145 C52.8719127,63.6026471 52.8703957,63.6532137 52.8673617,63.7058029 L52.9270303,63.7730565 L52.9937782,63.7138936 C52.9968121,63.658776 52.9983291,63.6056811 52.9983291,63.5551145 C52.9998461,63.0221427 52.8178064,62.7207659 52.6054268,62.5635038 C52.3940585,62.4052304 52.1649919,62.3890491 52.0729607,62.3885435" id="Fill-38" fill="#CCD4EF"></path>
                <path d="M52.4259154,61.8070278 L52.3596732,61.8095561 L52.3045556,61.8798436 L52.3748432,61.9349612 L52.4259154,61.9334442 L52.4274324,61.9334442 C52.5214863,61.9334442 52.7217299,61.9526595 52.8936563,62.085144 C53.0655827,62.2191454 53.2218334,62.4669217 53.2228448,62.9604515 L53.2203164,63.074732 L53.2804907,63.1409742 L53.3467329,63.0808 L53.3492612,62.9604515 C53.3502726,62.4411327 53.1778405,62.1438012 52.9705175,61.9855278 C52.7642059,61.8272544 52.5351393,61.8070278 52.4259154,61.8070278" id="Fill-39" fill="#CCD4EF"></path>
                <path d="M52.7824098,61.2239951 C52.7267866,61.2239951 52.69139,61.2295574 52.6888617,61.2295574 L52.6357668,61.3018676 L52.7070656,61.3549625 C52.7070656,61.3549625 52.7338659,61.3509172 52.7819042,61.3509172 L52.7824098,61.3509172 L52.7844325,61.3509172 C52.8921393,61.3509172 53.0903603,61.3731665 53.2577357,61.5061566 C53.4251111,61.6396524 53.5737769,61.8849003 53.5747882,62.3662942 L53.5737769,62.443661 L53.6349624,62.5088919 L53.7001933,62.4477064 L53.7012046,62.3662942 C53.702216,61.8601227 53.5383802,61.5663308 53.3361139,61.4070461 C53.1343533,61.2477614 52.9057923,61.2245007 52.7824098,61.2239951" id="Fill-40" fill="#CCD4EF"></path>
                <path d="M53.1419382,60.6409624 C53.0686167,60.6409624 53.0210841,60.649053 53.0185558,60.649053 L52.9669779,60.7223746 L53.0402994,60.7739525 L53.0660884,60.7709185 L53.1419382,60.7673788 L53.1434552,60.7673788 C53.2627924,60.7673788 53.458485,60.7926621 53.6218151,60.9246409 C53.7846395,61.0581367 53.9262259,61.3013619 53.9272373,61.7711255 L53.9267316,61.8120844 L53.9889285,61.876304 L54.0531481,61.8141071 L54.0536537,61.7711255 C54.0541594,61.27709 53.89892,60.9863321 53.7012046,60.8270474 C53.503995,60.6677627 53.276951,60.6409624 53.1419382,60.6409624" id="Fill-41" fill="#CCD4EF"></path>
                <path d="M53.503995,60.0569184 C53.4114581,60.0569184 53.3507782,60.0685487 53.3477442,60.0690543 L53.298189,60.1438929 L53.3725219,60.1934481 L53.4064015,60.1883915 L53.503995,60.1833348 L53.5045006,60.1833348 C53.6329398,60.1833348 53.8266098,60.2101351 53.9853888,60.3431252 C54.1441679,60.4756097 54.2791807,60.7163066 54.280192,61.1759568 L54.280192,61.1820248 L54.3444116,61.2442217 L54.4066085,61.1794965 L54.4066085,61.1759568 C54.4071141,60.693046 54.258954,60.4058278 54.0662954,60.2460374 C53.8736367,60.086247 53.6481097,60.0569184 53.503995,60.0569184" id="Fill-42" fill="#CCD4EF"></path>
                <path d="M53.867063,59.4708517 C53.7563222,59.4708517 53.6804723,59.48855 53.6769327,59.4890556 L53.6294001,59.5643998 L53.70525,59.6124381 L53.7482316,59.6048531 C53.7770545,59.6013135 53.8180134,59.5972681 53.867063,59.5972681 L53.8675687,59.5972681 C54.0015701,59.5972681 54.1901835,59.6265967 54.3434002,59.7545302 C54.496617,59.8829693 54.6260674,60.1140586 54.6331467,60.5494369 L54.6973663,60.6116338 L54.7595632,60.5474142 C54.7534952,60.0887753 54.6114031,59.8126818 54.4243068,59.657948 C54.2377161,59.5027086 54.0177514,59.4708517 53.867063,59.4708517" id="Fill-43" fill="#CCD4EF"></path>
                <path d="M54.2321538,58.884785 C54.1011863,58.884785 54.0101665,58.9080456 54.0066268,58.9090569 L53.9606112,58.9859181 L54.0374724,59.0314281 L54.0900617,59.0218204 C54.1249526,59.0167638 54.1740022,59.0112014 54.2321538,59.0112014 L54.2326594,59.0112014 C54.3702005,59.0112014 54.5522402,59.0415414 54.7004003,59.1649238 C54.8485604,59.2883063 54.9729542,59.5082709 54.9866072,59.9183659 L55.051838,59.9795515 L55.1130236,59.9143206 C55.0998763,59.4814707 54.9623352,59.2170074 54.7813068,59.067836 C54.6002785,58.9176533 54.3868875,58.884785 54.2321538,58.884785" id="Fill-44" fill="#CCD4EF"></path>
                <path d="M54.5987615,58.297707 C54.4480731,58.297707 54.3393549,58.3285526 54.3363209,58.3295639 L54.292328,58.4074364 L54.3702005,58.4509237 L54.4329031,58.4377764 C54.473862,58.4312027 54.5320136,58.4241234 54.5987615,58.4241234 C54.7388309,58.4241234 54.9148026,58.454969 55.0574004,58.5732948 C55.2005038,58.691115 55.3203466,58.9009663 55.3395619,59.2867893 L55.4058041,59.3469635 L55.4659784,59.2807213 C55.4467631,58.8721433 55.3137729,58.6203218 55.1383069,58.4757013 C54.9628409,58.3310809 54.7560235,58.297707 54.5987615,58.297707" id="Fill-45" fill="#CCD4EF"></path>
                <path d="M54.9643579,57.7091119 C54.7944541,57.7091119 54.669049,57.7475425 54.6655094,57.7490595 L54.6235391,57.8279434 L54.702423,57.869408 C54.7034343,57.869408 54.7292233,57.861823 54.7757445,57.852721 C54.8227714,57.8446304 54.8895193,57.8355284 54.9643579,57.8355284 C55.10645,57.8355284 55.275848,57.8668797 55.4144004,57.9801488 C55.5519415,58.093418 55.6682447,58.2926503 55.6930223,58.6557184 L55.7602759,58.7148813 L55.8194388,58.6476277 C55.7936498,58.2618047 55.664705,58.0211078 55.4942956,57.8825553 C55.3243919,57.7429916 55.1236426,57.7091119 54.9643579,57.7091119" id="Fill-46" fill="#CCD4EF"></path>
                <path d="M43.9322466,75.7482345 L43.9322466,75.7482345 C43.9201106,75.7537968 43.3492139,76.1001779 43.3507309,77.1575251 C43.3507309,77.4654756 43.3982635,77.8336003 43.5206346,78.2704956 L43.5985072,78.3139829 L43.6425001,78.236616 C43.5226573,77.8088227 43.4766417,77.4523283 43.4766417,77.1575251 C43.4771474,76.652365 43.6111488,76.3267162 43.7416106,76.1274838 C43.8073472,76.0278677 43.8725781,75.9596028 43.9201106,75.9166212 L43.9772509,75.8700999 L43.9959605,75.857964 L44.0187155,75.7709894 L43.9322466,75.7482345" id="Fill-47" fill="#CCD4EF"></path>
                <path d="M43.6025525,75.1672245 L43.6025525,75.1672245 C43.5899109,75.1722811 43.0063725,75.5080432 43.0078895,76.5699414 C43.0078895,76.8667673 43.0533994,77.219722 43.1671742,77.6379077 L43.2445411,77.6819006 L43.2890397,77.6045337 C43.1777932,77.1954501 43.134306,76.85362 43.134306,76.5699414 C43.1348116,76.0627586 43.2713414,75.7401438 43.4043315,75.5434398 C43.4715851,75.4443293 43.5378273,75.3770758 43.5868769,75.3351055 L43.6450284,75.2906069 L43.6642437,75.2779653 L43.6885157,75.1920021 L43.6025525,75.1672245" id="Fill-48" fill="#CCD4EF"></path>
                <path d="M43.2733641,74.5862144 C43.2602167,74.5907654 42.6640367,74.9159085 42.6655537,75.9813464 C42.6655537,76.2670476 42.707524,76.605338 42.8142195,77.004814 L42.8915864,77.0498183 L42.936085,76.9724514 C42.8324235,76.5815718 42.7914645,76.254406 42.7914645,75.9813464 C42.7919702,75.4731523 42.9310283,75.1525601 43.0670524,74.9578788 C43.1353173,74.8612966 43.2030765,74.7955601 43.2531374,74.7540955 L43.3123003,74.7101025 L43.3315156,74.6989779 L43.3583159,74.6135204 L43.2733641,74.5862144" id="Fill-49" fill="#CCD4EF"></path>
                <path d="M42.9436699,74.0052044 C42.9305226,74.0087441 42.3206896,74.3227625 42.3222066,75.3927514 C42.3222066,75.6678336 42.3621542,75.9909541 42.4607591,76.3722261 L42.5376203,76.417736 L42.5831302,76.3408748 C42.486548,75.9681991 42.4486231,75.655192 42.4486231,75.3927514 C42.4491288,74.8830403 42.5907152,74.5649765 42.7297733,74.3728234 C42.7990495,74.2772526 42.8678201,74.213033 42.9188923,74.1730854 L42.9795722,74.1301038 L42.9992932,74.1184735 L43.0281161,74.0340273 L42.9436699,74.0052044" id="Fill-50" fill="#CCD4EF"></path>
                <path d="M42.6139758,73.4241944 C42.6008285,73.4272284 41.9773426,73.7301222 41.9793652,74.8036507 C41.9793652,75.0671026 42.0162788,75.3770758 42.1078043,75.7391325 L42.1841599,75.7851481 L42.2301755,75.7087925 C42.1406726,75.3548265 42.1057817,75.0554723 42.1057817,74.8036507 C42.1057817,74.2919169 42.2509078,73.9768871 42.3919885,73.7877681 C42.4627817,73.6932086 42.5330693,73.6300004 42.5846472,73.5910641 L42.6463384,73.5501052 L42.6665651,73.5389805 L42.6979163,73.4555456 L42.6139758,73.4241944" id="Fill-51" fill="#CCD4EF"></path>
                <path d="M42.2847874,72.8426787 C42.2711344,72.8457127 41.6334898,73.1364705 41.6355125,74.2150557 C41.6355125,74.467383 41.6698977,74.7626918 41.7538383,75.1065446 L41.8306995,75.1530658 L41.8767151,75.0772159 C41.7947972,74.7409482 41.7619289,74.4557526 41.7619289,74.2150557 C41.7624346,73.7012992 41.910089,73.3887978 42.0542038,73.2022071 C42.126514,73.1091646 42.1978129,73.0474733 42.2509078,73.0095484 L42.314116,72.9696008 L42.3343426,72.9589818 L42.3677166,72.8755469 L42.2847874,72.8426787" id="Fill-52" fill="#CCD4EF"></path>
                <path d="M41.9550933,72.2616686 C41.9414403,72.2636913 41.289637,72.5413018 41.2916597,73.6249437 C41.2916597,73.8661463 41.3235166,74.1472965 41.4008835,74.4739566 L41.4767334,74.5209835 L41.5237603,74.4451337 C41.4484161,74.1260585 41.4180762,73.8550216 41.4180762,73.6249437 C41.4185818,73.1096702 41.5692702,72.8002027 41.7159133,72.6161404 C41.7897405,72.5251205 41.8630621,72.465452 41.9166627,72.4280327 L41.9813879,72.3890964 L42.0021202,72.3794888 L42.0375168,72.2975709 L41.9550933,72.2616686" id="Fill-53" fill="#CCD4EF"></path>
                <path d="M41.6253991,71.6806586 C41.6117462,71.6821756 40.9452786,71.9466388 40.9478069,73.0353373 C40.9478069,73.2654153 40.9771356,73.5324068 41.0474231,73.8413687 L41.123273,73.8889013 L41.1708056,73.8130514 C41.102035,73.5121802 41.0737177,73.2547963 41.0737177,73.0353373 C41.0742234,72.5175355 41.2279458,72.2111021 41.3776229,72.0305794 C41.4529671,71.9405708 41.5273,71.8819136 41.5824175,71.8460113 L41.6481541,71.8090977 L41.6693921,71.7989844 L41.7068113,71.7180779 L41.6253991,71.6806586" id="Fill-54" fill="#CCD4EF"></path>
                <path d="M41.2967164,71.0996486 C41.2830634,71.1001542 40.6004145,71.3504588 40.6029428,72.4447197 C40.6029428,72.6641786 40.6302488,72.9170115 40.6944684,73.2087807 L40.7693069,73.256819 L40.8178508,73.1814748 C40.7551483,72.8977962 40.7293593,72.6540653 40.7293593,72.4447197 C40.729865,71.9248952 40.8866214,71.6214957 41.0393325,71.444007 C41.115688,71.3555155 41.1915379,71.2988809 41.2481724,71.2650013 L41.3149203,71.2285934 L41.3371696,71.2194914 L41.3766116,71.1395962 L41.2967164,71.0996486" id="Fill-55" fill="#CCD4EF"></path>
                <path d="M40.9670222,70.5191442 L40.9670222,70.5191442 C40.9533693,70.5191442 40.2555504,70.7547845 40.2580788,71.854102 C40.2580788,72.0624363 40.2828564,72.3011106 40.341008,72.5751814 L40.4158465,72.624231 L40.4648961,72.5493925 C40.4082615,72.2824009 40.3844952,72.052323 40.3844952,71.854102 C40.3850009,71.3322549 40.5452969,71.032395 40.7005364,70.8579403 C40.7784089,70.7709658 40.8557758,70.7163539 40.9134217,70.6829799 L40.9816865,70.6485947 L41.0044415,70.6394927 L41.0459061,70.5606088 L40.9670222,70.5191442" id="Fill-56" fill="#CCD4EF"></path>
                <path d="M40.6378338,69.9381342 C40.6307545,69.9401568 40.4497261,69.9917348 40.2692034,70.1848991 C40.0886807,70.3780635 39.912709,70.7128142 39.9132147,71.2629786 C39.9132147,71.4601883 39.935464,71.6862209 39.9875475,71.9425935 L40.0623861,71.9921488 L40.1114357,71.9183215 C40.0608691,71.668017 40.0396311,71.4510863 40.0396311,71.2629786 C40.0401368,70.7391088 40.2029612,70.4417773 40.3617403,70.271368 C40.4411298,70.1859104 40.5200137,70.1323099 40.5791766,70.1009586 L40.6489584,70.0675846 L40.6717134,70.059494 L40.7157063,69.9816214 L40.6378338,69.9381342" id="Fill-57" fill="#CCD4EF"></path>
                <path d="M40.3081397,69.3571242 C40.3010604,69.3591468 40.1164923,69.4061737 39.9319243,69.5963041 C39.7468506,69.7859288 39.5668336,70.1186569 39.5673392,70.6718553 C39.5673392,70.858446 39.5875659,71.0698143 39.6340871,71.3094999 L39.70842,71.3600665 L39.7584809,71.2862393 C39.712971,71.0526217 39.6937557,70.8488383 39.6942614,70.6718553 C39.6942614,70.1454572 39.8611311,69.8516653 40.0224385,69.6842899 C40.1038507,69.6008551 40.1842515,69.5492772 40.2439201,69.5189372 L40.315219,69.4875859 L40.3389853,69.4794953 L40.3850009,69.4031397 L40.3081397,69.3571242" id="Fill-58" fill="#CCD4EF"></path>
                <path d="M39.9794569,68.7761141 C39.9718719,68.7776311 39.7832586,68.8206127 39.5946452,69.0066977 C39.4050205,69.1927828 39.2209582,69.5234882 39.2214638,70.0802263 C39.2214638,70.2556923 39.2396678,70.4534077 39.2811324,70.676912 L39.3544539,70.7279842 L39.4055262,70.6546627 C39.3650729,70.4372264 39.3478803,70.247096 39.3478803,70.0802263 C39.3483859,69.5507942 39.5182897,69.260542 39.6831367,69.0967063 C39.7660659,69.0147884 39.8484894,68.9652331 39.9091693,68.9359045 L39.9819852,68.9065759 L40.0062572,68.8994966 L40.0542954,68.8236467 L39.9794569,68.7761141" id="Fill-59" fill="#CCD4EF"></path>
                <path d="M39.6497628,68.1951041 C39.6421778,68.1966211 39.4500248,68.234546 39.2568604,68.4175971 C39.0626848,68.6001424 38.8745771,68.9288252 38.8750827,69.4885973 C38.8750827,69.6529387 38.891264,69.837001 38.927672,70.044324 L39.0004879,70.0953963 L39.0520658,70.0225804 C39.0171748,69.821831 39.0014992,69.644848 39.0014992,69.4885973 C39.0025105,68.9561312 39.1759539,68.6694186 39.343835,68.5091226 C39.4277755,68.4292274 39.511716,68.3816948 39.5744186,68.3538832 L39.6487514,68.3260715 L39.6735291,68.3194979 L39.72359,68.2456707 L39.6497628,68.1951041" id="Fill-60" fill="#CCD4EF"></path>
                <path d="M39.3205743,67.6145997 C39.313495,67.6156111 39.116791,67.6484793 38.9190757,67.827485 C38.7208547,68.0059851 38.5276903,68.3331509 38.5287016,68.8959569 C38.5287016,69.0496793 38.5428603,69.2205944 38.5742116,69.4117361 L38.6470274,69.463314 L38.699111,69.3910038 C38.6687711,69.2059301 38.6551181,69.0415887 38.6551181,68.8959569 C38.6561294,68.3609625 38.8326068,68.077284 39.0040275,67.9210332 C39.0899907,67.8431607 39.1754482,67.7971451 39.2396678,67.7708505 L39.3155177,67.7450615 L39.340801,67.7389935 L39.3933902,67.6661776 L39.3205743,67.6145997" id="Fill-61" fill="#CCD4EF"></path>
                <path d="M38.9913859,67.0335897 C38.9843066,67.034601 38.7835572,67.0624127 38.5807852,67.2378787 C38.3780132,67.4128391 38.1808036,67.7369709 38.1818149,68.3038222 C38.1818149,68.4459143 38.1939509,68.6036821 38.2207512,68.7786425 L38.2930614,68.830726 L38.3456506,68.7589215 C38.3198617,68.5900291 38.3082313,68.438835 38.3082313,68.3038222 C38.308737,67.7652881 38.4892597,67.4856549 38.6637144,67.3329439 C38.7511946,67.257094 38.8391805,67.2136067 38.9039057,67.1888291 L38.9817782,67.1645572 L39.0080728,67.1595005 L39.0626848,67.0882016 L38.9913859,67.0335897" id="Fill-62" fill="#CCD4EF"></path>
                <path d="M38.6621974,66.4530853 C38.6551181,66.4540967 38.4503234,66.476346 38.2430005,66.647261 C38.0351718,66.8181761 37.8334111,67.1397795 37.8344225,67.7106762 C37.8344225,67.8421494 37.8445358,67.9862641 37.8677964,68.1455488 L37.939601,68.1991494 L37.9926959,68.1278505 C37.9704466,67.9736225 37.9608389,67.83507 37.9608389,67.7106762 C37.9618503,67.1686025 38.145407,66.8930146 38.3234013,66.7443489 C38.4129042,66.6705216 38.502407,66.629057 38.5691549,66.6057964 L38.6485444,66.5835471 L38.6753447,66.5784905 L38.7319793,66.5092142 L38.6621974,66.4530853" id="Fill-63" fill="#CCD4EF"></path>
                <path d="M38.333009,65.872581 C38.3259297,65.8735923 38.116584,65.8897736 37.90471,66.0566433 C37.6918247,66.2230074 37.4855131,66.5430939 37.4865244,67.1180359 C37.4865244,67.2378787 37.4951207,67.3693518 37.514336,67.5124552 L37.5856349,67.5665615 L37.6397411,67.4957683 C37.6210315,67.3572158 37.6129408,67.2318107 37.6129408,67.1180359 C37.6139522,66.5714111 37.8015542,66.2998686 37.9825826,66.1557538 C38.0741081,66.0839493 38.1656336,66.0440017 38.2333928,66.0227637 L38.314805,66.0025371 L38.3426166,65.9989974 L38.4007682,65.9307325 L38.333009,65.872581" id="Fill-64" fill="#CCD4EF"></path>
                <path d="M38.0038205,65.2920766 L38.0038205,65.2920766 C37.9967412,65.2925823 37.7833502,65.3037069 37.5664196,65.46552 C37.3484776,65.6278387 37.1366036,65.9453969 37.1381206,66.5253956 C37.1381206,66.633608 37.1452,66.7514282 37.1608756,66.8798673 L37.2311631,66.9344792 L37.2862807,66.8641917 C37.2716164,66.7403035 37.2645371,66.6280457 37.2645371,66.5253956 C37.2655484,65.9747255 37.4571958,65.7067226 37.6417638,65.5666532 C37.735312,65.4968713 37.8283545,65.459452 37.8981364,65.439731 L37.9815712,65.4215271 L38.0098885,65.4184931 L38.0700627,65.3522508 L38.0038205,65.2920766" id="Fill-65" fill="#CCD4EF"></path>
                <path d="M37.6746321,64.7115722 L37.6746321,64.7115722 C37.6675528,64.7120779 37.4496108,64.7161232 37.2276235,64.873891 C37.0046249,65.031153 36.7881999,65.3466885 36.7892112,65.9312382 C36.7892112,66.028326 36.7952792,66.1329989 36.8079209,66.246268 L36.8777027,66.3018913 L36.933326,66.232615 C36.92119,66.1238969 36.9156277,66.0232694 36.9156277,65.9312382 C36.9171447,65.3760171 37.1123317,65.1130709 37.300945,64.9770468 C37.3960102,64.9092876 37.491581,64.8743966 37.5623743,64.8566983 L37.6478318,64.8400114 L37.6771604,64.8379887 L37.7388516,64.7732635 L37.6746321,64.7115722" id="Fill-66" fill="#CCD4EF"></path>
                <path d="M37.344938,64.1310679 C37.3287567,64.1315736 37.1062637,64.1330905 36.8812424,64.2878243 C36.6557154,64.4420524 36.4387848,64.7545538 36.4397961,65.3375865 C36.4397961,65.4235497 36.4448528,65.5155809 36.4544604,65.6136801 L36.5237367,65.669809 L36.5803712,65.6005328 C36.5707636,65.5064789 36.5667183,65.4189987 36.5667183,65.3375865 C36.5677296,64.7838825 36.7629166,64.5249816 36.9530469,64.3919914 C37.137615,64.2635523 37.3292623,64.2574843 37.3439266,64.2574843 L37.344938,64.2574843 L37.4081462,64.1942761 L37.344938,64.1310679" id="Fill-67" fill="#CCD4EF"></path>
                <path d="M37.0076589,63.5505635 C36.9616433,63.5505635 36.7356106,63.5571372 36.5146347,63.7133879 C36.293153,63.8696387 36.0893697,64.1780948 36.0908867,64.7434292 C36.0908867,64.8177621 36.0939207,64.8966459 36.1015057,64.9800808 L36.1697706,65.0377267 L36.2274165,64.9689562 C36.2203372,64.889061 36.2173032,64.8137167 36.2173032,64.7434292 C36.2183145,64.2069178 36.4018712,63.9500395 36.5879562,63.8165437 C36.7715129,63.6855763 36.9687226,63.67698 37.0061419,63.67698 L37.0076589,63.67698 L37.0111985,63.67698 L37.0769351,63.6163001 L37.0162552,63.5505635 L37.0076589,63.5505635" id="Fill-68" fill="#CCD4EF"></path>
                <path d="M36.6643118,62.9695535 C36.5930129,62.9700592 36.3649576,62.9816895 36.1485326,63.1389515 C35.9321077,63.2962136 35.7389433,63.6006244 35.7404603,64.1492719 C35.7404603,64.2119744 35.7429886,64.277711 35.7480453,64.3469872 L35.8158045,64.4056444 L35.8739561,64.3378852 C35.8688994,64.2711373 35.8668768,64.2089404 35.8668768,64.1492719 C35.8678881,63.6279304 36.0418371,63.3745918 36.2233712,63.241096 C36.4033882,63.1091173 36.6031262,63.0959699 36.6622891,63.0959699 L36.6643118,63.0959699 L36.6789761,63.0964756 L36.745724,63.0373127 L36.6870667,62.9700592 L36.6643118,62.9695535" id="Fill-69" fill="#CCD4EF"></path>
                <path d="M36.3148967,62.3885435 C36.2228655,62.3890491 35.9937989,62.4052304 35.7824306,62.5635038 C35.5705566,62.7207659 35.3885169,63.0221427 35.3895282,63.5551145 C35.3895282,63.6056811 35.3915509,63.658776 35.3945849,63.7138936 L35.4613328,63.7730565 L35.5210013,63.7058029 C35.5179673,63.6532137 35.5159447,63.6026471 35.5159447,63.5551145 C35.5174617,63.0484374 35.6818031,62.7981328 35.8582804,62.6641313 C36.0347578,62.5316469 36.2350015,62.5149599 36.3133797,62.5149599 L36.3148967,62.5149599 L36.3457423,62.5159712 L36.4150185,62.4593367 L36.3578783,62.3905661 L36.3573726,62.3905661 L36.3148967,62.3885435" id="Fill-70" fill="#CCD4EF"></path>
                <path d="M35.9624476,61.8070278 C35.8532238,61.8070278 35.6241572,61.8272544 35.4173398,61.9855278 C35.2100169,62.1438012 35.0375848,62.4411327 35.0385961,62.9609572 L35.0411245,63.0808 L35.1073667,63.1409742 L35.1675409,63.074732 L35.1650126,62.9609572 C35.1660239,62.4669217 35.3222747,62.2191454 35.494201,62.085144 C35.6666331,61.9526595 35.8663711,61.9334442 35.9609306,61.9334442 L35.9624476,61.9334442 L36.0135198,61.9349612 L36.0838074,61.8798436 L36.0286898,61.8095561 L35.9624476,61.8070278" id="Fill-71" fill="#CCD4EF"></path>
                <path d="M35.6054475,61.2239951 C35.4820651,61.2245007 35.2540098,61.2477614 35.0517435,61.4070461 C34.8499828,61.5663308 34.6861471,61.8601227 34.6871584,62.3662942 L34.6881697,62.4477064 L34.7534006,62.5088919 L34.8145862,62.443661 L34.8135749,62.3662942 C34.8140805,61.8849003 34.9627463,61.6396524 35.1306273,61.5061566 C35.297497,61.3731665 35.495718,61.3509172 35.6039305,61.3509172 L35.6054475,61.3509172 C35.6287082,61.3509172 35.6474178,61.3519285 35.6600594,61.3529399 C35.6721954,61.3539512 35.6792747,61.3549625 35.6802861,61.3549625 L35.6807917,61.3549625 L35.7525963,61.3018676 L35.6989957,61.2295574 C35.6964674,61.2295574 35.6615764,61.2239951 35.6054475,61.2239951" id="Fill-72" fill="#CCD4EF"></path>
                <path d="M35.2464248,60.6409624 C35.111412,60.6409624 34.8838624,60.6677627 34.6866527,60.8265417 C34.4894431,60.9863321 34.333698,61.27709 34.3342037,61.7711255 L34.3347093,61.8141071 L34.3994345,61.876304 L34.4611258,61.8120844 L34.4606201,61.7711255 C34.4616314,61.3013619 34.6037235,61.0581367 34.7665479,60.9246409 C34.9293723,60.7926621 35.1255707,60.7673788 35.2449078,60.7673788 L35.2464248,60.7673788 C35.2772704,60.7673788 35.3025537,60.7688958 35.3197463,60.7704128 C35.336939,60.7724355 35.3465466,60.7739525 35.3480636,60.7739525 L35.4213852,60.7223746 L35.3698073,60.649053 C35.3667733,60.649053 35.3197463,60.6409624 35.2464248,60.6409624" id="Fill-73" fill="#CCD4EF"></path>
                <path d="M34.8843681,60.0569184 C34.7397476,60.0569184 34.5142207,60.086247 34.3220677,60.2460374 C34.1289033,60.4058278 33.9812489,60.693046 33.9817546,61.1759568 L33.9817546,61.1815191 L34.0454685,61.2442217 L34.108171,61.1805078 L34.108171,61.1759568 C34.1091824,60.7163066 34.2441951,60.4756097 34.4029742,60.3431252 C34.5617533,60.2101351 34.7554233,60.1833348 34.8838624,60.1833348 C34.9632519,60.1833348 35.0128072,60.1934481 35.0153355,60.1934481 L35.0158412,60.1934481 L35.0901741,60.1438929 L35.0401131,60.0690543 C35.0375848,60.0685487 34.9763992,60.0569184 34.8843681,60.0569184" id="Fill-74" fill="#CCD4EF"></path>
                <path d="M34.5213,59.4708517 C34.3701059,59.4708517 34.150647,59.5027086 33.9635506,59.657948 C33.7764543,59.8126818 33.6343622,60.0887753 33.6282942,60.5474142 L33.6904911,60.6116338 L33.7547106,60.5494369 C33.7617899,60.1140586 33.8912404,59.8829693 34.0449628,59.7545302 C34.1981795,59.6260911 34.3867929,59.5972681 34.5213,59.5972681 C34.5703496,59.5972681 34.6113085,59.6013135 34.6401315,59.6048531 L34.6831131,59.6124381 L34.7589629,59.5643998 L34.7114304,59.4890556 C34.7078907,59.48855 34.6320408,59.4708517 34.5213,59.4708517" id="Fill-75" fill="#CCD4EF"></path>
                <path d="M34.1562093,58.884785 C34.0014755,58.884785 33.7875789,58.9176533 33.6070562,59.067836 C33.4255222,59.2170074 33.2884867,59.4814707 33.2753394,59.9143206 L33.336525,59.9795515 L33.4017559,59.9183659 C33.4154089,59.5082709 33.5398026,59.2883063 33.6879627,59.1649238 C33.8361228,59.0415414 34.0181625,59.0112014 34.1562093,59.0112014 C34.2138552,59.0112014 34.2634104,59.0167638 34.2977957,59.0218204 L34.350385,59.0314281 L34.4272462,58.9859181 L34.3817362,58.9090569 C34.3781966,58.9080456 34.2866711,58.884785 34.1562093,58.884785" id="Fill-76" fill="#CCD4EF"></path>
                <path d="M33.7896016,58.297707 C33.6323395,58.297707 33.4250165,58.3310809 33.2500561,58.4757013 C33.0745901,58.6203218 32.9416,58.8721433 32.921879,59.2807213 L32.9825589,59.3469635 L33.0482955,59.2867893 C33.0680164,58.9009663 33.1878592,58.691115 33.330457,58.5732948 C33.4735604,58.454969 33.6490265,58.4241234 33.7896016,58.4241234 L33.7906129,58.4241234 C33.8568551,58.4241234 33.914501,58.4312027 33.95546,58.4377764 L34.0181625,58.4509237 L34.0960351,58.4074364 L34.0520421,58.3295639 C34.0485025,58.3285526 33.94029,58.297707 33.7896016,58.297707" id="Fill-77" fill="#CCD4EF"></path>
                <path d="M33.4234995,57.7091119 C33.2647204,57.7091119 33.0634654,57.7429916 32.8935617,57.8825553 C32.723658,58.0211078 32.5942076,58.2618047 32.5689243,58.6476277 L32.6280872,58.7148813 L32.6953407,58.6557184 C32.7201183,58.2926503 32.8359158,58.093418 32.9739626,57.9801488 C33.1120094,57.8668797 33.2819131,57.8355284 33.4234995,57.8355284 L33.4240052,57.8355284 C33.4993494,57.8355284 33.5650859,57.8446304 33.6126185,57.852721 C33.6591398,57.861823 33.6844231,57.869408 33.6854344,57.869408 L33.7648239,57.8279434 L33.722348,57.7490595 C33.7188083,57.7475425 33.5934032,57.7091119 33.4234995,57.7091119" id="Fill-78" fill="#CCD4EF"></path>
                <path d="M44.1714266,76.0046071 L44.1259166,76.0278677 C44.1031617,76.0996722 43.5717069,77.7921357 44.0161871,78.7554291 L44.0495611,78.7766671 L44.0647311,78.7731274 L44.0824294,78.7250892 C43.6495794,77.7870791 44.1896305,76.0678153 44.1951928,76.050117 L44.1714266,76.0046071" id="Fill-79" fill="#BCC7EB"></path>
                <path d="M44.2730654,76.0046071 L44.2498048,76.050117 C44.2553671,76.0678153 44.7954182,77.7865734 44.3620626,78.7250892 L44.3802665,78.7731274 L44.3954365,78.7766671 L44.4283048,78.7554291 C44.8732907,77.7921357 44.3413303,76.0996722 44.319081,76.0278677 L44.2730654,76.0046071" id="Fill-80" fill="#BCC7EB"></path>
            </g>
            <g id="Imported-Layers" transform="translate(64.725225, -0.257812)" sketch:type="MSShapeGroup">
                <path d="M72.5827664,33.6540831 C72.5827664,34.9981429 73.6724763,36.0878527 75.0170417,36.0878527 C76.3616071,36.0878527 77.451317,34.9981429 77.451317,33.6540831 C77.451317,32.3095177 76.3616071,31.2193022 75.0170417,31.2193022 C73.6724763,31.2193022 72.5827664,32.3095177 72.5827664,33.6540831" id="Fill-2" fill="#EDC05B"></path>
                <path d="M71.6174504,36.6698741 C71.6174504,38.0139338 72.7076659,39.1036437 74.0517256,39.1036437 C75.3962911,39.1036437 76.4865066,38.0139338 76.4865066,36.6698741 C76.4865066,35.324803 75.3962911,34.2350932 74.0517256,34.2350932 C72.7076659,34.2350932 71.6174504,35.324803 71.6174504,36.6698741" id="Fill-3" fill="#EDC05B"></path>
                <path d="M70.8938426,39.3236083 C70.8938426,40.6681737 71.9835524,41.7578836 73.3281179,41.7578836 C74.6726833,41.7578836 75.7623931,40.6681737 75.7623931,39.3236083 C75.7623931,37.9785372 74.6726833,36.8888274 73.3281179,36.8888274 C71.9835524,36.8888274 70.8938426,37.9785372 70.8938426,39.3236083" id="Fill-4" fill="#EDC05B"></path>
                <path d="M70.3896938,41.9990862 C70.3896938,43.3436516 71.4794036,44.4333615 72.823969,44.4333615 C74.1685345,44.4333615 75.2582443,43.3436516 75.2582443,41.9990862 C75.2582443,40.6545208 74.1685345,39.5648109 72.823969,39.5648109 C71.4794036,39.5648109 70.3896938,40.6545208 70.3896938,41.9990862" id="Fill-5" fill="#EDC05B"></path>
                <path d="M73.3063742,29.6729761 C73.3063742,31.0175415 74.3960841,32.1072514 75.7406495,32.1072514 C77.0852149,32.1072514 78.1754304,31.0175415 78.1754304,29.6729761 C78.1754304,28.3284107 77.0852149,27.2387008 75.7406495,27.2387008 C74.3960841,27.2387008 73.3063742,28.3284107 73.3063742,29.6729761" id="Fill-6" fill="#EDC05B"></path>
                <path d="M74.5493008,29.3038401 C74.5493008,29.7715809 75.0231097,30.1508303 75.608165,30.1508303 C76.1922091,30.1508303 76.6660179,29.7715809 76.6660179,29.3038401 C76.6660179,28.8360992 76.1922091,28.4573555 75.608165,28.4573555 C75.0231097,28.4573555 74.5493008,28.8360992 74.5493008,29.3038401" id="Fill-7" fill="#EDC05B"></path>
                <path d="M74.7121252,27.6042972 C74.7121252,28.5104504 75.446352,29.2451828 76.3525051,29.2451828 C77.2586583,29.2451828 77.9928851,28.5104504 77.9928851,27.6042972 C77.9928851,26.6986497 77.2586583,25.9639173 76.3525051,25.9639173 C75.446352,25.9639173 74.7121252,26.6986497 74.7121252,27.6042972" id="Fill-8" fill="#EDC05B"></path>
                <path d="M73.6856236,24.9879823 C73.6856236,26.1864103 74.4911492,27.1577943 75.4847826,27.1577943 C76.4784159,27.1577943 77.2839416,26.1864103 77.2839416,24.9879823 C77.2839416,23.7895543 76.4784159,22.8181702 75.4847826,22.8181702 C74.4911492,22.8181702 73.6856236,23.7895543 73.6856236,24.9879823" id="Fill-9" fill="#EDC05B"></path>
                <path d="M74.1680288,21.7830723 C74.1680288,22.8646915 75.0443477,23.7410103 76.1259668,23.7410103 C77.207586,23.7410103 78.0839049,22.8646915 78.0839049,21.7830723 C78.0839049,20.7019588 77.207586,19.8251342 76.1259668,19.8251342 C75.0443477,19.8251342 74.1680288,20.7019588 74.1680288,21.7830723" id="Fill-10" fill="#EDC05B"></path>
                <path d="M73.3847524,18.7728436 C73.3847524,19.8544628 74.261577,20.7307817 75.3431962,20.7307817 C76.4248154,20.7307817 77.3011342,19.8544628 77.3011342,18.7728436 C77.3011342,17.6912245 76.4248154,16.8149056 75.3431962,16.8149056 C74.261577,16.8149056 73.3847524,17.6912245 73.3847524,18.7728436" id="Fill-11" fill="#EDC05B"></path>
                <path d="M72.643952,16.973179 C72.643952,17.9379894 73.426217,18.7202544 74.3905217,18.7202544 C75.3553321,18.7202544 76.1365858,17.9379894 76.1365858,16.973179 C76.1365858,16.0088743 75.3553321,15.2271149 74.3905217,15.2271149 C73.426217,15.2271149 72.643952,16.0088743 72.643952,16.973179" id="Fill-12" fill="#EDC05B"></path>
                <path d="M71.5855934,14.7507777 C71.5855934,15.6569308 72.3203259,16.3911576 73.2259734,16.3911576 C74.1326322,16.3911576 74.866859,15.6569308 74.866859,14.7507777 C74.866859,13.8446245 74.1326322,13.1103978 73.2259734,13.1103978 C72.3203259,13.1103978 71.5855934,13.8446245 71.5855934,14.7507777" id="Fill-13" fill="#EDC05B"></path>
                <path d="M68.3043279,11.8932601 C68.3043279,13.383963 69.5128692,14.5919986 71.0035721,14.5919986 C72.4942749,14.5919986 73.7023106,13.383963 73.7023106,11.8932601 C73.7023106,10.4025573 72.4942749,9.19401598 71.0035721,9.19401598 C69.5128692,9.19401598 68.3043279,10.4025573 68.3043279,11.8932601" id="Fill-14" fill="#EDC05B"></path>
                <path d="M65.3411262,9.56466902 C65.3411262,10.9967146 66.5021349,12.1577234 67.9341805,12.1577234 C69.3662261,12.1577234 70.5272349,10.9967146 70.5272349,9.56466902 C70.5272349,8.13211775 69.3662261,6.97161469 67.9341805,6.97161469 C66.5021349,6.97161469 65.3411262,8.13211775 65.3411262,9.56466902" id="Fill-15" fill="#EDC05B"></path>
                <path d="M65.1292522,7.0247096 C65.1292522,7.75489105 65.7218926,8.34753139 66.452074,8.34753139 C67.1827611,8.34753139 67.7754015,7.75489105 67.7754015,7.0247096 C67.7754015,6.29351682 67.1827611,5.70087648 66.452074,5.70087648 C65.7218926,5.70087648 65.1292522,6.29351682 65.1292522,7.0247096" id="Fill-16" fill="#EDC05B"></path>
                <path d="M60.2607017,6.01843461 C60.2607017,7.59712331 61.5400362,8.87696351 63.1182192,8.87696351 C64.6964023,8.87696351 65.9762425,7.59712331 65.9762425,6.01843461 C65.9762425,4.44025158 64.6964023,3.16091705 63.1182192,3.16091705 C61.5400362,3.16091705 60.2607017,4.44025158 60.2607017,6.01843461" id="Fill-17" fill="#EDC05B"></path>
                <path d="M58.672911,4.06049655 C58.672911,4.9666497 59.4071378,5.70087648 60.3132909,5.70087648 C61.2194441,5.70087648 61.9541765,4.9666497 61.9541765,4.06049655 C61.9541765,3.1543434 61.2194441,2.42011662 60.3132909,2.42011662 C59.4071378,2.42011662 58.672911,3.1543434 58.672911,4.06049655" id="Fill-18" fill="#EDC05B"></path>
                <path d="M52.2165698,4.58992867 C52.2165698,6.6651812 53.89892,8.34753139 55.9736668,8.34753139 C58.049425,8.34753139 59.7312696,6.6651812 59.7312696,4.58992867 C59.7312696,2.5151818 58.049425,0.832831609 55.9736668,0.832831609 C53.89892,0.832831609 52.2165698,2.5151818 52.2165698,4.58992867" id="Fill-19" fill="#EDC05B"></path>
                <path d="M49.0409884,4.00790731 C49.0409884,5.4106243 50.1787365,6.54786673 51.5814535,6.54786673 C52.9841705,6.54786673 54.1214129,5.4106243 54.1214129,4.00790731 C54.1214129,2.60468465 52.9841705,1.46744222 51.5814535,1.46744222 C50.1787365,1.46744222 49.0409884,2.60468465 49.0409884,4.00790731" id="Fill-20" fill="#EDC05B"></path>
                <path d="M45.0194281,4.74870774 C45.0194281,6.32689077 46.2987627,7.6062253 47.8769457,7.6062253 C49.4551287,7.6062253 50.7344633,6.32689077 50.7344633,4.74870774 C50.7344633,3.17001904 49.4551287,1.89068451 47.8769457,1.89068451 C46.2987627,1.89068451 45.0194281,3.17001904 45.0194281,4.74870774" id="Fill-21" fill="#EDC05B"></path>
                <path d="M40.891678,5.06626587 C40.891678,6.5276401 42.0764531,7.71241512 43.5378273,7.71241512 C44.9986958,7.71241512 46.1834709,6.5276401 46.1834709,5.06626587 C46.1834709,3.60489165 44.9986958,2.42011662 43.5378273,2.42011662 C42.0764531,2.42011662 40.891678,3.60489165 40.891678,5.06626587" id="Fill-22" fill="#EDC05B"></path>
                <path d="M38.8806451,6.81283562 C38.8806451,8.01126362 39.8520291,8.98264766 41.0504571,8.98264766 C42.2483794,8.98264766 43.2202691,8.01126362 43.2202691,6.81283562 C43.2202691,5.61440762 42.2483794,4.64302358 41.0504571,4.64302358 C39.8520291,4.64302358 38.8806451,5.61440762 38.8806451,6.81283562" id="Fill-23" fill="#EDC05B"></path>
                <path d="M35.5993795,8.61199462 C35.5993795,10.0440402 36.7603883,11.205049 38.1924339,11.205049 C39.6244795,11.205049 40.7854882,10.0440402 40.7854882,8.61199462 C40.7854882,7.17944334 39.6244795,6.01843461 38.1924339,6.01843461 C36.7603883,6.01843461 35.5993795,7.17944334 35.5993795,8.61199462" id="Fill-24" fill="#EDC05B"></path>
                <path d="M34.0115889,10.0935955 C34.0115889,11.0584059 34.7938539,11.8401652 35.7581586,11.8401652 C36.7224633,11.8401652 37.5047284,11.0584059 37.5047284,10.0935955 C37.5047284,9.12929075 36.7224633,8.34753139 35.7581586,8.34753139 C34.7938539,8.34753139 34.0115889,9.12929075 34.0115889,10.0935955" id="Fill-25" fill="#EDC05B"></path>
                <path d="M32.6655064,35.0542718 C32.6655064,36.3983315 31.5752909,37.4885471 30.2312312,37.4885471 C28.8866658,37.4885471 27.7964502,36.3983315 27.7964502,35.0542718 C27.7964502,33.7097064 28.8866658,32.6199965 30.2312312,32.6199965 C31.5752909,32.6199965 32.6655064,33.7097064 32.6655064,35.0542718" id="Fill-26" fill="#EDC05B"></path>
                <path d="M33.8715194,38.1904112 C33.8715194,39.5354823 32.7818096,40.6251921 31.4372442,40.6251921 C30.0926787,40.6251921 29.0029689,39.5354823 29.0029689,38.1904112 C29.0029689,36.8463515 30.0926787,35.7561359 31.4372442,35.7561359 C32.7818096,35.7561359 33.8715194,36.8463515 33.8715194,38.1904112" id="Fill-27" fill="#EDC05B"></path>
                <path d="M35.7131543,45.2560797 C35.7131543,46.6006452 34.6234445,47.690355 33.2788791,47.690355 C31.9343137,47.690355 30.8446038,46.6006452 30.8446038,45.2560797 C30.8446038,43.9115143 31.9343137,42.8218045 33.2788791,42.8218045 C34.6234445,42.8218045 35.7131543,43.9115143 35.7131543,45.2560797" id="Fill-28" fill="#EDC05B"></path>
                <path d="M37.7641349,47.7894655 C37.7641349,49.1335253 36.6739194,50.2237408 35.329354,50.2237408 C33.9847886,50.2237408 32.8950787,49.1335253 32.8950787,47.7894655 C32.8950787,46.4449001 33.9847886,45.3546846 35.329354,45.3546846 C36.6739194,45.3546846 37.7641349,46.4449001 37.7641349,47.7894655" id="Fill-29" fill="#EDC05B"></path>
                <path d="M38.2465401,51.0464591 C38.2465401,52.3905188 37.1568303,53.4807343 35.8117592,53.4807343 C34.4676994,53.4807343 33.3774839,52.3905188 33.3774839,51.0464591 C33.3774839,49.7018937 34.4676994,48.6121838 35.8117592,48.6121838 C37.1568303,48.6121838 38.2465401,49.7018937 38.2465401,51.0464591" id="Fill-30" fill="#EDC05B"></path>
                <path d="M40.0558124,53.096934 C40.0558124,54.4414994 38.9661026,55.5312092 37.6215372,55.5312092 C36.2769717,55.5312092 35.1872619,54.4414994 35.1872619,53.096934 C35.1872619,51.7528742 36.2769717,50.6626587 37.6215372,50.6626587 C38.9661026,50.6626587 40.0558124,51.7528742 40.0558124,53.096934" id="Fill-31" fill="#EDC05B"></path>
                <path d="M69.8046384,44.723108 C69.8046384,46.0676734 70.8948539,47.1578889 72.2389137,47.1578889 C73.5839848,47.1578889 74.6736946,46.0676734 74.6736946,44.723108 C74.6736946,43.3785425 73.5839848,42.2888327 72.2389137,42.2888327 C70.8948539,42.2888327 69.8046384,43.3785425 69.8046384,44.723108" id="Fill-32" fill="#EDC05B"></path>
                <path d="M67.7541635,47.2564937 C67.7541635,48.6010592 68.844379,49.6912747 70.1884388,49.6912747 C71.5330042,49.6912747 72.622714,48.6010592 72.622714,47.2564937 C72.622714,45.9119283 71.5330042,44.8222185 70.1884388,44.8222185 C68.844379,44.8222185 67.7541635,45.9119283 67.7541635,47.2564937" id="Fill-33" fill="#EDC05B"></path>
                <path d="M67.2712526,50.513993 C67.2712526,51.8580527 68.3614682,52.9477626 69.7060336,52.9477626 C71.050599,52.9477626 72.1403088,51.8580527 72.1403088,50.513993 C72.1403088,49.1689219 71.050599,48.079212 69.7060336,48.079212 C68.3614682,48.079212 67.2712526,49.1689219 67.2712526,50.513993" id="Fill-34" fill="#EDC05B"></path>
                <path d="M65.4619803,52.5639622 C65.4619803,53.9085276 66.5516902,54.9987431 67.8967613,54.9987431 C69.240821,54.9987431 70.3310365,53.9085276 70.3310365,52.5639622 C70.3310365,51.2199024 69.240821,50.1301926 67.8967613,50.1301926 C66.5516902,50.1301926 65.4619803,51.2199024 65.4619803,52.5639622" id="Fill-35" fill="#EDC05B"></path>
                <path d="M40.0684541,58.1763472 L40.0684541,69.2448663 L52.272193,77.1908991 L65.0437947,69.2448663 L65.0437947,58.1763472 L40.0684541,58.1763472" id="Fill-36" fill="#F2D7A6"></path>
                <path d="M65.0437947,58.1763472 L40.0684541,58.1763472 L40.0684541,61.8050051 L49.1092533,67.9513732 C50.0619277,68.5991311 51.1678189,68.9252855 52.275227,68.9252855 C53.263298,68.9252855 54.2533917,68.665879 55.1383069,68.1430205 L65.0437947,62.29095 L65.0437947,58.1763472" id="Fill-37" fill="#ECC791"></path>
                <path d="M74.6934156,33.6267772 C74.6934156,33.6267772 72.9903331,31.6400162 72.1387918,33.90995 C72.1387918,33.90995 77.5312122,8.36775802 52.5563772,8.36775802 C27.5810366,8.36775802 32.9734569,33.90995 32.9734569,33.90995 C32.1219157,31.6400162 30.4193389,33.6267772 30.4193389,33.6267772 C29.0004406,46.3978732 34.6765394,47.5330929 34.6765394,47.5330929 C34.6765394,47.5330929 34.6765394,54.6280901 41.2036738,61.1557302 C47.7313139,67.683876 52.5563772,67.683876 52.5563772,67.683876 C52.5563772,67.683876 57.6646134,66.8323347 64.1922534,60.3046946 C70.7193879,53.7770545 70.436215,47.5330929 70.436215,47.5330929 C70.436215,47.5330929 76.1123139,46.3978732 74.6934156,33.6267772" id="Fill-38" fill="#F2D7A6"></path>
                <path d="M33.3673706,38.125686 L35.0704531,30.4628261 C35.0704531,30.4628261 36.7735356,24.2193702 37.6245712,22.8004719 C38.4761124,21.381068 40.0684541,19.6779855 40.0684541,19.6779855 C40.0684541,19.6779855 44.707938,21.6652521 54.0794427,23.6515075 C63.451453,25.6382685 65.7218926,25.35459 65.7218926,25.35459 L63.1672688,22.2326092 L68.2765163,22.2326092 C68.2765163,22.2326092 68.5596892,26.7734883 69.9790931,28.1923866 C71.3974857,29.6117905 71.9653485,38.125686 71.9653485,38.125686 L74.2362937,35.8552464 L75.6546863,31.0301832 L75.6546863,15.4212906 C75.6546863,15.4212906 69.6949089,1.23079061 52.6666124,1.23079061 C35.6383158,1.23079061 29.9617113,16.8401889 29.9617113,16.8401889 C29.9617113,16.8401889 28.8264915,30.1791476 29.9617113,31.5980459 C31.0974367,33.0174499 33.3673706,38.125686 33.3673706,38.125686" id="Fill-39" fill="#EDC05B"></path>
                <path d="M40.0684541,69.1022686 L52.5563772,109.401812 L52.272193,77.1908991 L40.0684541,69.1022686" id="Fill-40" fill="#F7F7F6"></path>
                <path d="M53.6288944,112.175389 L40.0684541,69.1027742 L9.41752027,83.5769527 L9.41752027,88.4015103 C9.41752027,88.4015103 2.91668046,106.055821 0.187096354,112.175389 L53.6288944,112.175389" id="Fill-41" fill="#6C7074"></path>
                <path d="M30.5927822,90.6719499 L48.2172588,112.175389 L53.3937598,112.175389 L39.9582189,67.683876 C39.9582189,67.683876 28.9888102,71.3418625 28.3056557,74.5361535 L37.6877794,85.2795296 L30.5927822,90.6719499" id="Fill-42" fill="#5A5D60"></path>
                <path d="M39.9582189,67.683876 L52.272193,77.1908991 L46.115206,87.5504748 L39.9582189,67.683876" id="Fill-43" fill="#D1D8D0"></path>
                <path d="M104.10294,112.175389 L95.1273714,88.4015103 L95.1273714,83.5769527 L64.475932,69.1027742 L50.9159973,112.175389 L104.10294,112.175389" id="Fill-44" fill="#6C7074"></path>
                <path d="M56.3276329,112.175389 L73.9521095,90.6719499 L66.8571123,85.2795296 L76.1118082,74.411254 C75.4286537,71.216963 65.075146,67.7587145 65.075146,67.7587145 C61.1840475,77.9089445 53.2658264,104.23239 50.8962763,112.175389 L56.3276329,112.175389" id="Fill-45" fill="#5A5D60"></path>
                <path d="M65.075146,67.7587145 L52.272193,77.1908991 L58.4296857,87.5504748 L65.075146,67.7587145" id="Fill-46" fill="#ECECED"></path>
                <path d="M56.6760367,84.5999147 L52.272193,77.1908991 L47.868855,84.5999147 L50.070524,87.5504748 L50.1489022,90.2633719 L47.868855,93.8798939 L52.272193,107.867116 L56.6760367,93.8798939 L54.3929555,90.2633719 L54.4743677,87.5504748 L56.6760367,84.5999147" id="Fill-47" fill="#A84F41"></path>
                <path d="M70.87665,104.617708 L74.3743404,101.18272 L74.3743404,102.899961 L80.404911,96.9973237 L82.7436155,104.617708 L70.87665,104.617708" id="Fill-48" fill="#ECECED"></path>
                <path d="M82.3431281,104.617708 L71.4950793,104.617708 L70.7118029,105.386825 L82.5792741,105.386825 L82.3431281,104.617708" id="Fill-49" fill="#64686C"></path>
                <path d="M80.2405696,97.766947 L74.2094934,103.669079 L74.2094934,101.951332 L71.4950793,104.617708 L82.3431281,104.617708 L80.2405696,97.766947" id="Fill-50" fill="#DADADC"></path>
                <path d="M83.5966737,106.990797 L70.4953779,106.990797 C70.3113156,106.990797 70.1616385,106.841626 70.1616385,106.657564 L70.1616385,104.326444 C70.1616385,104.142382 70.3113156,103.992705 70.4953779,103.992705 L83.5966737,103.992705 C83.7812417,103.992705 83.9309188,104.142382 83.9309188,104.326444 L83.9309188,106.657564 C83.9309188,106.841626 83.7812417,106.990797 83.5966737,106.990797" id="Fill-51" fill="#5A5D60"></path>
                <path d="M23.6874098,110.484442 L23.0462255,112.175389 L23.8001732,112.175389 L23.6874098,110.484442" id="Fill-52" fill="#5C6064"></path>
                <path d="M83.8505179,110.484442 L83.7377545,112.175389 L84.4922079,112.175389 L83.8505179,110.484442" id="Fill-53" fill="#5C6064"></path>
                <path d="M53.479723,91.2620619 L51.0626404,91.2620619 C50.285432,91.2620619 49.6498101,90.62644 49.6498101,89.8492316 L49.6498101,87.3077552 C49.6498101,86.5305468 50.285432,85.8949249 51.0626404,85.8949249 L53.479723,85.8949249 C54.2564257,85.8949249 54.8925533,86.5305468 54.8925533,87.3077552 L54.8925533,89.8492316 C54.8925533,90.62644 54.2564257,91.2620619 53.479723,91.2620619" id="Fill-54" fill="#992511"></path>
                <path d="M9.41752027,83.5769527 C9.41752027,83.5769527 17.9455744,84.4386073 21.6071006,99.0837008 C21.6071006,99.0837008 19.1960859,89.3718831 9.41752027,83.5769527" id="Fill-55" fill="#5A5D60"></path>
                <path d="M95.167319,83.5769527 C95.167319,83.5769527 86.639265,84.4386073 82.9777387,99.0837008 C82.9777387,99.0837008 85.3887534,89.3718831 95.167319,83.5769527" id="Fill-56" fill="#5A5D60"></path>
                <path d="M32.3034497,31.2643064 C32.3034497,32.6088719 31.2137399,33.6990874 29.8691744,33.6990874 C28.524609,33.6990874 27.4343935,32.6088719 27.4343935,31.2643064 C27.4343935,29.9202467 28.524609,28.8300312 29.8691744,28.8300312 C31.2137399,28.8300312 32.3034497,29.9202467 32.3034497,31.2643064" id="Fill-57" fill="#EDC05B"></path>
                <path d="M32.3034497,28.6105722 C32.3034497,29.9551376 31.2137399,31.0453531 29.8691744,31.0453531 C28.524609,31.0453531 27.4343935,29.9551376 27.4343935,28.6105722 C27.4343935,27.2660068 28.524609,26.1762969 29.8691744,26.1762969 C31.2137399,26.1762969 32.3034497,27.2660068 32.3034497,28.6105722" id="Fill-58" fill="#EDC05B"></path>
                <path d="M31.0605231,28.2419418 C31.0605231,28.709177 30.5867142,29.0884264 30.0021646,29.0884264 C29.4176149,29.0884264 28.943806,28.709177 28.943806,28.2419418 C28.943806,27.7742009 29.4176149,27.3949516 30.0021646,27.3949516 C30.5867142,27.3949516 31.0605231,27.7742009 31.0605231,28.2419418" id="Fill-59" fill="#EDC05B"></path>
                <path d="M30.8982044,26.5418933 C30.8982044,27.4480465 30.163472,28.1822733 29.2573188,28.1822733 C28.3511656,28.1822733 27.6169389,27.4480465 27.6169389,26.5418933 C27.6169389,25.6357402 28.3511656,24.9015134 29.2573188,24.9015134 C30.163472,24.9015134 30.8982044,25.6357402 30.8982044,26.5418933" id="Fill-60" fill="#EDC05B"></path>
                <path d="M31.9242003,23.9255784 C31.9242003,25.1240064 31.1186747,26.0948847 30.1250413,26.0948847 C29.131408,26.0948847 28.3258824,25.1240064 28.3258824,23.9255784 C28.3258824,22.7271504 29.131408,21.7557663 30.1250413,21.7557663 C31.1186747,21.7557663 31.9242003,22.7271504 31.9242003,23.9255784" id="Fill-61" fill="#EDC05B"></path>
                <path d="M31.4417952,20.7211741 C31.4417952,21.8017819 30.5654763,22.6791121 29.4838571,22.6791121 C28.4027436,22.6791121 27.525919,21.8017819 27.525919,20.7211741 C27.525919,19.6395549 28.4027436,18.7622247 29.4838571,18.7622247 C30.5654763,18.7622247 31.4417952,19.6395549 31.4417952,20.7211741" id="Fill-62" fill="#EDC05B"></path>
                <path d="M32.2250715,17.7104398 C32.2250715,18.7915533 31.348247,19.6688835 30.2671334,19.6688835 C29.1855143,19.6688835 28.3086897,18.7915533 28.3086897,17.7104398 C28.3086897,16.6293262 29.1855143,15.751996 30.2671334,15.751996 C31.348247,15.751996 32.2250715,16.6293262 32.2250715,17.7104398" id="Fill-63" fill="#EDC05B"></path>
                <path d="M32.9658719,15.9112808 C32.9658719,16.8755855 32.1841126,17.6573448 31.2193022,17.6573448 C30.2549975,17.6573448 29.4732381,16.8755855 29.4732381,15.9112808 C29.4732381,14.946976 30.2549975,14.164711 31.2193022,14.164711 C32.1841126,14.164711 32.9658719,14.946976 32.9658719,15.9112808" id="Fill-64" fill="#EDC05B"></path>
                <path d="M34.0242305,13.6883738 C34.0242305,14.594527 33.2900037,15.3292594 32.3838506,15.3292594 C31.4776974,15.3292594 30.742965,14.594527 30.742965,13.6883738 C30.742965,12.7822207 31.4776974,12.0479939 32.3838506,12.0479939 C33.2900037,12.0479939 34.0242305,12.7822207 34.0242305,13.6883738" id="Fill-65" fill="#EDC05B"></path>
                <path d="M37.3049904,10.8308562 C37.3049904,12.3210534 36.0969547,13.5295947 34.6062519,13.5295947 C33.115549,13.5295947 31.9075134,12.3210534 31.9075134,10.8308562 C31.9075134,9.3401534 33.115549,8.13161208 34.6062519,8.13161208 C36.0969547,8.13161208 37.3049904,9.3401534 37.3049904,10.8308562" id="Fill-66" fill="#EDC05B"></path>
                <path d="M40.2686977,8.50226513 C40.2686977,9.93481641 39.107689,11.0953195 37.6756434,11.0953195 C36.2435978,11.0953195 35.0825891,9.93481641 35.0825891,8.50226513 C35.0825891,7.06971386 36.2435978,5.90870513 37.6756434,5.90870513 C39.107689,5.90870513 40.2686977,7.06971386 40.2686977,8.50226513" id="Fill-67" fill="#EDC05B"></path>
                <path d="M40.4805717,5.96180004 C40.4805717,6.69248716 39.8879314,7.28462183 39.1577499,7.28462183 C38.4270628,7.28462183 37.8344225,6.69248716 37.8344225,5.96180004 C37.8344225,5.2316186 38.4270628,4.63897825 39.1577499,4.63897825 C39.8879314,4.63897825 40.4805717,5.2316186 40.4805717,5.96180004" id="Fill-68" fill="#EDC05B"></path>
                <path d="M45.3491223,4.95653639 C45.3491223,6.53471942 44.0697877,7.81405395 42.4916047,7.81405395 C40.9134217,7.81405395 39.6335815,6.53471942 39.6335815,4.95653639 C39.6335815,3.37835336 40.9134217,2.09851316 42.4916047,2.09851316 C44.0697877,2.09851316 45.3491223,3.37835336 45.3491223,4.95653639" id="Fill-69" fill="#EDC05B"></path>
                <path d="M46.9369129,2.99859832 C46.9369129,3.90475148 46.2026862,4.63897825 45.296533,4.63897825 C44.3903799,4.63897825 43.6556474,3.90475148 43.6556474,2.99859832 C43.6556474,2.09244517 44.3903799,1.35771273 45.296533,1.35771273 C46.2026862,1.35771273 46.9369129,2.09244517 46.9369129,2.99859832" id="Fill-70" fill="#EDC05B"></path>
                <path d="M53.3932542,3.52803044 C53.3932542,5.60277731 51.710904,7.28462183 49.6361571,7.28462183 C47.5609046,7.28462183 45.8785544,5.60277731 45.8785544,3.52803044 C45.8785544,1.45227224 47.5609046,-0.229572283 49.6361571,-0.229572283 C51.710904,-0.229572283 53.3932542,1.45227224 53.3932542,3.52803044" id="Fill-71" fill="#EDC05B"></path>
                <path d="M45.0694891,20.536606 C45.0694891,22.6118586 43.3876445,24.2937031 41.312392,24.2937031 C39.2371395,24.2937031 37.5552949,22.6118586 37.5552949,20.536606 C37.5552949,18.4613535 39.2371395,16.779509 41.312392,16.779509 C43.3876445,16.779509 45.0694891,18.4613535 45.0694891,20.536606" id="Fill-72" fill="#EDC05B"></path>
                <path d="M50.2571147,19.4509415 C50.2571147,21.5256884 48.5747645,23.2080386 46.499512,23.2080386 C44.4242595,23.2080386 42.7419093,21.5256884 42.7419093,19.4509415 C42.7419093,17.375689 44.4242595,15.6933388 46.499512,15.6933388 C48.5747645,15.6933388 50.2571147,17.375689 50.2571147,19.4509415" id="Fill-73" fill="#EDC05B"></path>
                <path d="M55.082178,22.5870809 C55.082178,24.6623335 53.3998278,26.3446837 51.3250809,26.3446837 C49.2498284,26.3446837 47.5674782,24.6623335 47.5674782,22.5870809 C47.5674782,20.5123341 49.2498284,18.8294782 51.3250809,18.8294782 C53.3998278,18.8294782 55.082178,20.5123341 55.082178,22.5870809" id="Fill-74" fill="#EDC05B"></path>
                <path d="M59.4248361,21.742619 C59.4248361,23.8183772 57.7424859,25.5002217 55.667739,25.5002217 C53.5919808,25.5002217 51.9101363,23.8183772 51.9101363,21.742619 C51.9101363,19.6678721 53.5919808,17.9850163 55.667739,17.9850163 C57.7424859,17.9850163 59.4248361,19.6678721 59.4248361,21.742619" id="Fill-75" fill="#EDC05B"></path>
                <path d="M62.9230322,21.381068 C62.9230322,23.4563205 61.240682,25.138165 59.1659352,25.138165 C57.090177,25.138165 55.4083325,23.4563205 55.4083325,21.381068 C55.4083325,19.3058154 57.090177,17.6239709 59.1659352,17.6239709 C61.240682,17.6239709 62.9230322,19.3058154 62.9230322,21.381068" id="Fill-76" fill="#EDC05B"></path>
                <path d="M56.5683298,2.94550341 C56.5683298,4.34872607 55.4310874,5.4859685 54.0283704,5.4859685 C52.6251478,5.4859685 51.4879053,4.34872607 51.4879053,2.94550341 C51.4879053,1.54278642 52.6251478,0.405543989 54.0283704,0.405543989 C55.4310874,0.405543989 56.5683298,1.54278642 56.5683298,2.94550341" id="Fill-77" fill="#EDC05B"></path>
                <path d="M60.5903958,3.68630384 C60.5903958,5.26448687 59.3110613,6.5438214 57.7328782,6.5438214 C56.1546952,6.5438214 54.8753607,5.26448687 54.8753607,3.68630384 C54.8753607,2.10812081 56.1546952,0.828786282 57.7328782,0.828786282 C59.3110613,0.828786282 60.5903958,2.10812081 60.5903958,3.68630384" id="Fill-78" fill="#EDC05B"></path>
                <path d="M64.7181459,4.00386198 C64.7181459,5.4652362 63.5338765,6.64950556 62.0725023,6.64950556 C60.6106224,6.64950556 59.4263531,5.4652362 59.4263531,4.00386198 C59.4263531,2.54248775 60.6106224,1.35771273 62.0725023,1.35771273 C63.5338765,1.35771273 64.7181459,2.54248775 64.7181459,4.00386198" id="Fill-79" fill="#EDC05B"></path>
                <path d="M76.9507078,14.987935 C76.9507078,16.4493092 75.7659328,17.6340842 74.3045586,17.6340842 C72.84369,17.6340842 71.6584093,16.4493092 71.6584093,14.987935 C71.6584093,13.5265607 72.84369,12.3417857 74.3045586,12.3417857 C75.7659328,12.3417857 76.9507078,13.5265607 76.9507078,14.987935" id="Fill-80" fill="#EDC05B"></path>
                <path d="M66.7291789,5.75043173 C66.7291789,6.94835406 65.7577948,7.91973811 64.5598725,7.91973811 C63.3614445,7.91973811 62.3900605,6.94835406 62.3900605,5.75043173 C62.3900605,4.55200373 63.3614445,3.58061969 64.5598725,3.58061969 C65.7577948,3.58061969 66.7291789,4.55200373 66.7291789,5.75043173" id="Fill-81" fill="#EDC05B"></path>
                <path d="M64.3166472,24.4484368 C64.3166472,25.6463592 63.3457689,26.6177432 62.1468352,26.6177432 C60.9484072,26.6177432 59.9770232,25.6463592 59.9770232,24.4484368 C59.9770232,23.2495032 60.9484072,22.2786248 62.1468352,22.2786248 C63.3457689,22.2786248 64.3166472,23.2495032 64.3166472,24.4484368" id="Fill-82" fill="#EDC05B"></path>
                <path d="M66.850033,24.5687853 C66.850033,25.7672133 65.878649,26.7385973 64.680221,26.7385973 C63.481793,26.7385973 62.5104089,25.7672133 62.5104089,24.5687853 C62.5104089,23.3703573 63.481793,22.3989733 64.680221,22.3989733 C65.878649,22.3989733 66.850033,23.3703573 66.850033,24.5687853" id="Fill-83" fill="#EDC05B"></path>
                <path d="M66.0055711,21.6733428 C66.0055711,22.8717708 65.034187,23.8431548 63.835759,23.8431548 C62.637331,23.8431548 61.665947,22.8717708 61.665947,21.6733428 C61.665947,20.4749148 62.637331,19.5035308 63.835759,19.5035308 C65.034187,19.5035308 66.0055711,20.4749148 66.0055711,21.6733428" id="Fill-84" fill="#EDC05B"></path>
                <path d="M69.2630703,21.6733428 C69.2630703,22.8717708 68.2911806,23.8431548 67.0932583,23.8431548 C65.8943246,23.8431548 64.9234462,22.8717708 64.9234462,21.6733428 C64.9234462,20.4749148 65.8943246,19.5035308 67.0932583,19.5035308 C68.2911806,19.5035308 69.2630703,20.4749148 69.2630703,21.6733428" id="Fill-85" fill="#EDC05B"></path>
                <path d="M61.5420589,25.4132472 C61.5420589,26.6116752 60.5706748,27.5830593 59.3722468,27.5830593 C58.1743245,27.5830593 57.2029405,26.6116752 57.2029405,25.4132472 C57.2029405,24.2148192 58.1743245,23.2434352 59.3722468,23.2434352 C60.5706748,23.2434352 61.5420589,24.2148192 61.5420589,25.4132472" id="Fill-86" fill="#EDC05B"></path>
                <path d="M58.1642112,24.930842 C58.1642112,26.1287644 57.1928271,27.1006541 55.9949048,27.1006541 C54.7964768,27.1006541 53.8250928,26.1287644 53.8250928,24.930842 C53.8250928,23.732414 54.7964768,22.76103 55.9949048,22.76103 C57.1928271,22.76103 58.1642112,23.732414 58.1642112,24.930842" id="Fill-87" fill="#EDC05B"></path>
                <path d="M49.7367846,22.5870809 C49.7367846,23.7855089 48.7659062,24.756893 47.5674782,24.756893 C46.3690502,24.756893 45.3976662,23.7855089 45.3976662,22.5870809 C45.3976662,21.3891586 46.3690502,20.4172689 47.5674782,20.4172689 C48.7659062,20.4172689 49.7367846,21.3891586 49.7367846,22.5870809" id="Fill-88" fill="#EDC05B"></path>
                <path d="M71.5714348,22.1046757 C71.5714348,23.3031037 70.5995451,24.2744878 69.4016227,24.2744878 C68.2031947,24.2744878 67.2318107,23.3031037 67.2318107,22.1046757 C67.2318107,20.9067534 68.2031947,19.9348637 69.4016227,19.9348637 C70.5995451,19.9348637 71.5714348,20.9067534 71.5714348,22.1046757" id="Fill-89" fill="#EDC05B"></path>
                <path d="M70.0104444,7.54959072 C70.0104444,8.98163633 68.8494357,10.1431507 67.4173901,10.1431507 C65.9853445,10.1431507 64.8238301,8.98163633 64.8238301,7.54959072 C64.8238301,6.11754512 65.9853445,4.95653639 67.4173901,4.95653639 C68.8494357,4.95653639 70.0104444,6.11754512 70.0104444,7.54959072" id="Fill-90" fill="#EDC05B"></path>
                <path d="M71.5982351,9.03119158 C71.5982351,9.99600197 70.8164757,10.778267 69.852171,10.778267 C68.8868549,10.778267 68.1056012,9.99600197 68.1056012,9.03119158 C68.1056012,8.06688686 68.8868549,7.28462183 69.852171,7.28462183 C70.8164757,7.28462183 71.5982351,8.06688686 71.5982351,9.03119158" id="Fill-91" fill="#EDC05B"></path>
            </g>
        </g>
    </g>
</svg>